<svg width="209" height="85" viewBox="0 0 209 85" fill="none" xmlns="http://www.w3.org/2000/svg">
<g clip-path="url(#clip0_293_825)">
<path fill-rule="evenodd" clip-rule="evenodd" d="M71.2305 28.5739C70.2602 28.6891 69.272 28.7455 68.2701 28.7455C62.7179 28.7455 57.577 26.9874 53.3772 23.9974C53.3659 23.9905 53.3569 23.9815 53.3455 23.9748C46.8365 19.3282 42.5938 11.7209 42.5938 3.12759V0L71.2305 28.5739Z" fill="url(#paint0_linear_293_825)"/>
<path fill-rule="evenodd" clip-rule="evenodd" d="M75.0576 34.1502C75.0576 41.4505 69.1231 47.372 61.8067 47.372C55.8993 47.372 50.8966 43.5154 49.1868 38.1897C49.1573 38.0994 49.1301 38.0091 49.103 37.9188C47.7529 33.665 45.5093 29.8083 42.5963 26.5633C38.2312 21.7045 32.3578 18.2203 25.7109 16.8483L42.5963 0V3.12759C42.5963 11.7211 46.8391 19.3284 53.3481 23.9748C53.3595 23.9815 53.3685 23.9905 53.3798 23.9974C57.5797 26.9873 62.7204 28.7455 68.2727 28.7455C69.2745 28.7455 70.2629 28.6891 71.233 28.5739L74.9195 32.2522C75.0122 32.873 75.0575 33.507 75.0575 34.1502H75.0576Z" fill="url(#paint1_linear_293_825)"/>
<path fill-rule="evenodd" clip-rule="evenodd" d="M42.5936 51.3302V84.9998L0 42.4999L14.3615 28.1699C19.0115 40.0987 29.6502 49.0463 42.5937 51.3302H42.5936Z" fill="url(#paint2_radial_293_825)"/>
<path fill-rule="evenodd" clip-rule="evenodd" d="M85.187 42.4997L42.5938 84.9996V51.33C44.7175 51.7047 46.9021 51.901 49.1344 51.901C49.4963 51.901 49.8582 51.8964 50.2199 51.8851C62.1592 51.5444 72.694 45.6048 79.2774 36.603L85.187 42.4997Z" fill="url(#paint3_radial_293_825)"/>
<path fill-rule="evenodd" clip-rule="evenodd" d="M42.5916 26.5631V51.3301C29.6482 49.0462 19.0093 40.0986 14.3594 28.1698L25.7061 16.8481C32.353 18.2201 38.2265 21.7045 42.5914 26.5631H42.5916Z" fill="url(#paint4_linear_293_825)"/>
<path fill-rule="evenodd" clip-rule="evenodd" d="M79.2774 36.6035C72.6938 45.6052 62.1592 51.5448 50.2199 51.8856C49.8581 51.8968 49.4961 51.9015 49.1344 51.9015C46.9021 51.9015 44.7175 51.7051 42.5938 51.3305V26.5635C45.5068 29.8085 47.7502 33.6652 49.1005 37.919C49.1275 38.0093 49.1547 38.0996 49.1842 38.1899C50.8939 43.5156 55.8967 47.3722 61.8041 47.3722C69.1206 47.3722 75.0551 41.4507 75.0551 34.1504C75.0551 33.5072 75.0098 32.8732 74.9171 32.2524L79.2775 36.6035H79.2774Z" fill="url(#paint5_radial_293_825)"/>
<path d="M109.42 19.5454V28.7453H108.484V21.3851L104.862 27.5756H104.401L100.779 21.4247V28.7453H99.8438V19.5454H100.647L104.652 26.3667L108.616 19.5454H109.42Z" fill="white"/>
<path d="M112.422 28.7453H113.397V19.5454H112.422V28.7453Z" fill="white"/>
<path d="M124.104 19.5454V28.7453H123.3L117.373 21.2804V28.7453H116.398V19.5454H117.202L123.143 27.0104V19.5454H124.104Z" fill="white"/>
<path d="M133.63 27.9044V28.7453H127.109V19.5454H133.432V20.3864H128.084V23.659H132.852V24.4871H128.084V27.9044H133.63Z" fill="white"/>
<path d="M142.218 28.7457L140.111 25.7887C139.874 25.8149 139.628 25.8278 139.373 25.8278H136.897V28.7458H135.922V19.5459H139.373C140.549 19.5459 141.471 19.8263 142.139 20.3869C142.806 20.9478 143.14 21.7188 143.14 22.7001C143.14 23.4189 142.958 24.0253 142.593 24.5203C142.229 25.0157 141.708 25.373 141.032 25.5918L143.285 28.7458H142.218L142.218 28.7457ZM141.441 24.3955C141.924 23.9924 142.165 23.4272 142.165 22.6998C142.165 21.9552 141.924 21.3838 141.441 20.9848C140.958 20.5862 140.26 20.3867 139.347 20.3867H136.897V24.9998H139.347C140.26 24.9998 140.958 24.7986 141.441 24.3955Z" fill="white"/>
<path d="M151.226 26.2881H146.089L144.983 28.7458H143.969L148.184 19.5459H149.145L153.36 28.7458H152.333L151.227 26.2881H151.226ZM150.871 25.4995L148.658 20.558L146.445 25.4995H150.871Z" fill="white"/>
<path d="M154.891 19.5454H155.865V27.9044H161.028V28.7453H154.891V19.5454Z" fill="white"/>
<path d="M106.061 37.0859C106.728 37.6468 107.062 38.4177 107.062 39.399C107.062 40.3807 106.728 41.1493 106.061 41.7058C105.393 42.262 104.471 42.5404 103.295 42.5404H100.818V45.4451H99.8438V36.2451H103.295C104.471 36.2451 105.393 36.5256 106.061 37.0862L106.061 37.0859ZM105.363 41.0878C105.846 40.6893 106.087 40.1264 106.087 39.399C106.087 38.6544 105.846 38.0829 105.363 37.6839C104.88 37.2854 104.182 37.0859 103.268 37.0859H100.818V41.6861H103.268C104.182 41.6861 104.88 41.4868 105.363 41.0878Z" fill="white"/>
<path d="M115.468 45.4449L113.361 42.4878C113.123 42.5139 112.878 42.527 112.623 42.527H110.147V45.4451H109.172V36.2451H112.623C113.799 36.2451 114.721 36.5256 115.389 37.0862C116.056 37.647 116.39 38.418 116.39 39.3993C116.39 40.1181 116.207 40.7246 115.843 41.2195C115.479 41.715 114.958 42.0722 114.282 42.2909L116.535 45.4451H115.468L115.468 45.4449ZM114.691 41.0946C115.174 40.6916 115.415 40.1264 115.415 39.399C115.415 38.6544 115.174 38.0829 114.691 37.6839C114.208 37.2854 113.51 37.0859 112.597 37.0859H110.147V41.6991H112.597C113.51 41.6991 114.208 41.4978 114.691 41.0946Z" fill="white"/>
<path d="M120.239 44.9125C119.497 44.5052 118.918 43.9465 118.501 43.2371C118.084 42.527 117.875 41.7301 117.875 40.8446C117.875 39.96 118.084 39.1625 118.501 38.4527C118.918 37.743 119.497 37.1845 120.239 36.777C120.982 36.3697 121.809 36.166 122.722 36.166C123.636 36.166 124.459 36.3674 125.192 36.7706C125.925 37.1737 126.503 37.7321 126.924 38.4461C127.346 39.1606 127.557 39.96 127.557 40.8446C127.557 41.7301 127.346 42.5292 126.924 43.2434C126.503 43.9578 125.925 44.5162 125.192 44.9191C124.459 45.3225 123.636 45.524 122.722 45.524C121.809 45.524 120.982 45.3201 120.239 44.9125ZM124.698 44.1635C125.286 43.8346 125.747 43.3795 126.081 42.7967C126.415 42.2142 126.582 41.5634 126.582 40.8446C126.582 40.1265 126.415 39.476 126.081 38.8931C125.747 38.3104 125.286 37.8548 124.698 37.5263C124.11 37.1976 123.451 37.0334 122.722 37.0334C121.993 37.0334 121.333 37.1976 120.74 37.5263C120.147 37.8548 119.682 38.3105 119.344 38.8931C119.006 39.476 118.837 40.1265 118.837 40.8446C118.837 41.5634 119.006 42.2142 119.344 42.7967C119.682 43.3797 120.147 43.8346 120.74 44.1635C121.333 44.4919 121.993 44.6564 122.722 44.6564C123.451 44.6564 124.11 44.4919 124.698 44.1635Z" fill="white"/>
<path d="M129.742 36.2451H133.496C134.471 36.2451 135.331 36.44 136.078 36.8298C136.824 37.2198 137.404 37.7632 137.817 38.4595C138.229 39.1563 138.436 39.9512 138.436 40.8448C138.436 41.7389 138.229 42.534 137.817 43.2306C137.404 43.9271 136.824 44.4707 136.078 44.8601C135.331 45.2504 134.471 45.4452 133.496 45.4452H129.742V36.2453V36.2451ZM133.443 44.604C134.251 44.604 134.958 44.4441 135.564 44.124C136.17 43.8045 136.64 43.3619 136.974 42.7969C137.307 42.2315 137.474 41.5811 137.474 40.8448C137.474 40.1091 137.307 39.4586 136.974 38.8933C136.64 38.3282 136.17 37.8858 135.564 37.566C134.958 37.2462 134.251 37.0862 133.443 37.0862H130.717V44.604H133.443Z" fill="white"/>
<path d="M141.548 44.4987C140.88 43.8152 140.547 42.821 140.547 41.5152V36.2451H141.521V41.476C141.521 42.5447 141.763 43.3422 142.246 43.868C142.729 44.3937 143.427 44.6566 144.34 44.6566C145.262 44.6566 145.965 44.3937 146.448 43.868C146.931 43.3422 147.172 42.5449 147.172 41.476V36.2451H148.121V41.5152C148.121 42.821 147.789 43.8153 147.126 44.4987C146.463 45.182 145.535 45.5239 144.341 45.5239C143.146 45.5239 142.215 45.1819 141.548 44.4987H141.548Z" fill="white"/>
<path d="M152.594 44.9191C151.86 44.5162 151.285 43.9577 150.868 43.2434C150.451 42.5292 150.242 41.7301 150.242 40.8446C150.242 39.96 150.451 39.1606 150.868 38.4461C151.285 37.7319 151.862 37.1737 152.6 36.7706C153.338 36.3674 154.163 36.166 155.076 36.166C155.761 36.166 156.393 36.2798 156.973 36.5075C157.553 36.7355 158.044 37.0687 158.448 37.5063L157.829 38.1242C157.109 37.3971 156.2 37.0334 155.103 37.0334C154.374 37.0334 153.711 37.2002 153.114 37.5328C152.516 37.8661 152.049 38.3216 151.711 38.8997C151.373 39.4781 151.204 40.1265 151.204 40.8446C151.204 41.5634 151.373 42.2118 151.711 42.79C152.049 43.3683 152.517 43.8238 153.114 44.157C153.711 44.49 154.374 44.6564 155.103 44.6564C156.209 44.6564 157.118 44.2884 157.829 43.5524L158.448 44.1702C158.044 44.6085 157.55 44.9435 156.966 45.1757C156.382 45.408 155.748 45.524 155.063 45.524C154.15 45.524 153.327 45.3225 152.594 44.9191Z" fill="white"/>
<path d="M162.201 37.086H158.961V36.2451H166.416V37.086H163.176V45.445H162.201V37.086Z" fill="white"/>
<path d="M99.8438 62.1444H100.818V52.9443H99.8438V62.1444Z" fill="white"/>
<path d="M111.526 52.9443V62.1444H110.722L104.795 54.6793V62.1444H103.82V52.9443H104.624L110.564 60.4095V52.9443H111.526Z" fill="white"/>
<path d="M116.322 53.7855H113.082V52.9443H120.537V53.7855H117.297V62.1444H116.322V53.7855Z" fill="white"/>
<path d="M128.614 61.3034V62.1444H122.094V52.9443H128.416V53.7855H123.069V57.0581H127.837V57.8861H123.069V61.3034H128.614Z" fill="white"/>
<path d="M137.199 62.1443L135.091 59.1871C134.854 59.2136 134.608 59.2264 134.354 59.2264H131.877V62.1444H130.902V52.9443H134.353C135.53 52.9443 136.452 53.2249 137.119 53.7855C137.787 54.3464 138.12 55.1174 138.12 56.0986C138.12 56.8175 137.938 57.4242 137.574 57.9188C137.209 58.4143 136.689 58.7713 136.013 58.9902L138.266 62.1444H137.199L137.199 62.1443ZM136.421 57.7941C136.904 57.3909 137.146 56.8259 137.146 56.0984C137.146 55.3538 136.904 54.7821 136.421 54.3832C135.938 53.9848 135.24 53.7852 134.327 53.7852H131.877V58.3984H134.327C135.24 58.3984 135.938 58.197 136.421 57.7941Z" fill="white"/>
<path d="M148.131 52.9443V62.1444H147.328L141.4 54.6793V62.1444H140.426V52.9443H141.229L147.17 60.4095V52.9443H148.131Z" fill="white"/>
<path d="M156.914 59.6866H151.777L150.671 62.1444H149.656L153.871 52.9443H154.833L159.048 62.1444H158.021L156.914 59.6866H156.914ZM156.558 58.8978L154.345 53.9563L152.132 58.8978H156.558Z" fill="white"/>
<path d="M161.912 53.7855H158.672V52.9443H166.127V53.7855H162.887V62.1444H161.912V53.7855Z" fill="white"/>
<path d="M167.68 62.1444H168.654V52.9443H167.68V62.1444Z" fill="white"/>
<path d="M173.204 61.6123C172.462 61.2047 171.882 60.6459 171.466 59.9366C171.048 59.2265 170.84 58.4294 170.84 57.5444C170.84 56.6593 171.048 55.862 171.466 55.1522C171.882 54.4425 172.462 53.884 173.204 53.4767C173.946 53.0692 174.774 52.8652 175.687 52.8652C176.6 52.8652 177.424 53.0671 178.157 53.4701C178.89 53.8732 179.467 54.4318 179.889 55.1457C180.31 55.8601 180.521 56.6593 180.521 57.5444C180.521 58.4294 180.31 59.229 179.889 59.943C179.467 60.6573 178.89 61.2158 178.157 61.6186C177.424 62.0218 176.6 62.2234 175.687 62.2234C174.774 62.2234 173.946 62.0195 173.204 61.6123ZM177.663 60.8628C178.251 60.5341 178.712 60.0787 179.046 59.4962C179.38 58.9134 179.547 58.2629 179.547 57.5444C179.547 56.8261 179.38 56.1755 179.046 55.5926C178.712 55.01 178.251 54.5543 177.663 54.2258C177.075 53.8971 176.416 53.7329 175.687 53.7329C174.958 53.7329 174.298 53.8971 173.705 54.2258C173.112 54.5543 172.647 55.0102 172.309 55.5926C171.97 56.1755 171.802 56.8261 171.802 57.5444C171.802 58.2629 171.97 58.9134 172.309 59.4962C172.647 60.0789 173.112 60.5341 173.705 60.8628C174.298 61.1914 174.958 61.3559 175.687 61.3559C176.416 61.3559 177.075 61.1914 177.663 60.8628Z" fill="white"/>
<path d="M190.412 52.9443V62.1444H189.609L183.682 54.6793V62.1444H182.707V52.9443H183.51L189.451 60.4095V52.9443H190.412Z" fill="white"/>
<path d="M199.199 59.6866H194.062L192.955 62.1444H191.941L196.156 52.9443H197.118L201.333 62.1444H200.306L199.199 59.6866H199.199ZM198.843 58.8978L196.63 53.9563L194.417 58.8978H198.843Z" fill="white"/>
<path d="M202.859 52.9443H203.834V61.3034H208.997V62.1444H202.859V52.9443Z" fill="white"/>
</g>
<defs>
<linearGradient id="paint0_linear_293_825" x1="64.2885" y1="30.3855" x2="36.1147" y2="35.8949" gradientUnits="userSpaceOnUse">
<stop stop-color="#434243"/>
<stop offset="1" stop-color="#7D8185"/>
</linearGradient>
<linearGradient id="paint1_linear_293_825" x1="42.9147" y1="-0.328398" x2="68.9707" y2="50.0426" gradientUnits="userSpaceOnUse">
<stop stop-color="#F13800"/>
<stop offset="1" stop-color="#FF711B"/>
</linearGradient>
<radialGradient id="paint2_radial_293_825" cx="0" cy="0" r="1" gradientUnits="userSpaceOnUse" gradientTransform="translate(37.4785 67.382) rotate(-142.655) scale(140.244 140.163)">
<stop stop-color="#918F94"/>
<stop offset="1" stop-color="#3E3E3E"/>
</radialGradient>
<radialGradient id="paint3_radial_293_825" cx="0" cy="0" r="1" gradientUnits="userSpaceOnUse" gradientTransform="translate(71.1278 49.1873) rotate(-95.3157) scale(98.7208 98.9348)">
<stop stop-color="#2C2C2C"/>
<stop offset="1" stop-color="#535252"/>
</radialGradient>
<linearGradient id="paint4_linear_293_825" x1="23.0104" y1="14.5512" x2="41.4782" y2="20.7968" gradientUnits="userSpaceOnUse">
<stop stop-color="#F97B14"/>
<stop offset="1" stop-color="#FEB028"/>
</linearGradient>
<radialGradient id="paint5_radial_293_825" cx="0" cy="0" r="1" gradientUnits="userSpaceOnUse" gradientTransform="translate(58.3617 41.0123) rotate(136.052) scale(44.7899 44.7864)">
<stop stop-color="#FFAC28"/>
<stop offset="1" stop-color="#F86B0F"/>
</radialGradient>
<clipPath id="clip0_293_825">
<rect width="209" height="85" fill="white"/>
</clipPath>
</defs>
</svg>
